 <svg display="none" xmlns="http://www.w3.org/2000/svg">
 
<!-- Logo -->

<symbol id="logo" viewBox="0 0 262 78.914">
  <g id="Group_2" data-name="Group 2" transform="translate(-13 -7)">
    <text id="the_cipa" data-name="the cipa" transform="translate(99 56)" font-size="36" font-family="ArialMT, Arial"><tspan x="0" y="0">the cipa</tspan></text>
    <g id="Rectangle_1" data-name="Rectangle 1" transform="translate(13 7)" fill="#fff" stroke="#000" stroke-linecap="round" stroke-linejoin="round" stroke-width="2">
      <rect width="80" height="70" stroke="none"/>
      <rect x="1" y="1" width="78" height="68" fill="none"/>
    </g>
    <g id="Group_2-2" data-name="Group 2">
      <line id="Line_1" data-name="Line 1" x1="8" y2="8" transform="translate(40.5 76.5)" fill="none" stroke="#000" stroke-linecap="round" stroke-width="2"/>
      <line id="Line_3" data-name="Line 3" x2="8" y2="8" transform="translate(58.5 76.5)" fill="none" stroke="#000" stroke-linecap="round" stroke-width="2"/>
      <line id="Line_4" data-name="Line 4" x2="44" transform="translate(31.5 84.5)" fill="none" stroke="#000" stroke-linecap="round" stroke-width="2"/>
    </g>
    <g id="Ellipse_1" data-name="Ellipse 1" transform="translate(50 67)" fill="#87d6b4" stroke="#87d6b4" stroke-width="1">
      <circle cx="3.5" cy="3.5" r="3.5" stroke="none"/>
      <circle cx="3.5" cy="3.5" r="3" fill="none"/>
    </g>
    <g id="Rectangle_3" data-name="Rectangle 3" transform="translate(62 69)" fill="#6b5947" stroke="#6b5947" stroke-width="1">
      <rect width="3" height="3" stroke="none"/>
      <rect x="0.5" y="0.5" width="2" height="2" fill="none"/>
    </g>
    <g id="Rectangle_4" data-name="Rectangle 4" transform="translate(42 69)" fill="#6b5947" stroke="#6b5947" stroke-width="1">
      <rect width="3" height="3" stroke="none"/>
      <rect x="0.5" y="0.5" width="2" height="2" fill="none"/>
    </g>
    <g id="Rectangle_2" data-name="Rectangle 2" transform="translate(23 16)" fill="#bb9c9c" stroke="#000" stroke-linecap="round" stroke-linejoin="round" stroke-width="2">
      <rect width="60" height="50" stroke="none"/>
      <rect x="1" y="1" width="58" height="48" fill="none"/>
    </g>
    <g id="Group_1" data-name="Group 1" transform="translate(23 20)">
      <line id="Line_5" data-name="Line 5" x1="8" y2="7" transform="translate(11.5 16.5)" fill="none" stroke="#fff" stroke-linecap="round" stroke-width="2"/>
      <line id="Line_6" data-name="Line 6" x2="8" y2="8" transform="translate(11.5 23.5)" fill="none" stroke="#fff" stroke-linecap="round" stroke-width="2"/>
      <line id="Line_7" data-name="Line 7" x1="8" y2="7" transform="translate(48.5 31.5) rotate(180)" fill="none" stroke="#fff" stroke-linecap="round" stroke-width="2"/>
      <line id="Line_8" data-name="Line 8" x2="8" y2="8" transform="translate(48.5 24.5) rotate(180)" fill="none" stroke="#fff" stroke-linecap="round" stroke-width="2"/>
      <line id="Line_9" data-name="Line 9" x1="3" y2="16" transform="translate(28.5 15.5)" fill="none" stroke="#fff" stroke-linecap="round" stroke-width="2"/>
    </g>
    <path id="Path_1" data-name="Path 1" d="M13.222,16.4h2.985l1.767-2.852L19.413,16.4h2.959l-2.609,2.294,1.048,3.251-2.836-2.114L15.3,21.943l.555-3.251L13.222,16.4" transform="translate(16.609 9)" fill="#fff" stroke="#fff" stroke-linecap="round" stroke-linejoin="round" stroke-width="1"/>
  </g>
</symbol>

<!-- Skype -->

<symbol id="skype" viewBox="0 0 448 512">
<g>
<path d="M424.7 299.8c2.9-14 4.7-28.9 4.7-43.8 0-113.5-91.9-205.3-205.3-205.3-14.9 0-29.7 1.7-43.8 4.7C161.3 40.7 137.7 32 112 32 50.2 32 0 82.2 0 144c0 25.7 8.7 49.3 23.3 68.2-2.9 14-4.7 28.9-4.7 43.8 0 113.5 91.9 205.3 205.3 205.3 14.9 0 29.7-1.7 43.8-4.7 19 14.6 42.6 23.3 68.2 23.3 61.8 0 112-50.2 112-112 .1-25.6-8.6-49.2-23.2-68.1zm-194.6 91.5c-65.6 0-120.5-29.2-120.5-65 0-16 9-30.6 29.5-30.6 31.2 0 34.1 44.9 88.1 44.9 25.7 0 42.3-11.4 42.3-26.3 0-18.7-16-21.6-42-28-62.5-15.4-117.8-22-117.8-87.2 0-59.2 58.6-81.1 109.1-81.1 55.1 0 110.8 21.9 110.8 55.4 0 16.9-11.4 31.8-30.3 31.8-28.3 0-29.2-33.5-75-33.5-25.7 0-42 7-42 22.5 0 19.8 20.8 21.8 69.1 33 41.4 9.3 90.7 26.8 90.7 77.6 0 59.1-57.1 86.5-112 86.5z"/>
</g>
</symbol>

<!-- E-mail -->

<symbol id="email" viewBox="0 0 512 512">
<g>
<path d="M464 64H48C21.49 64 0 85.49 0 112v288c0 26.51 21.49 48 48 48h416c26.51 0 48-21.49 48-48V112c0-26.51-21.49-48-48-48zm0 48v40.805c-22.422 18.259-58.168 46.651-134.587 106.49-16.841 13.247-50.201 45.072-73.413 44.701-23.208.375-56.579-31.459-73.413-44.701C106.18 199.465 70.425 171.067 48 152.805V112h416zM48 400V214.398c22.914 18.251 55.409 43.862 104.938 82.646 21.857 17.205 60.134 55.186 103.062 54.955 42.717.231 80.509-37.199 103.053-54.947 49.528-38.783 82.032-64.401 104.947-82.653V400H48z"/>
</g>
</symbol>

<!-- Telegram -->

<symbol id="telegram" viewBox="0 0 448 512">
<g>
<path d="M446.7 98.6l-67.6 318.8c-5.1 22.5-18.4 28.1-37.3 17.5l-103-75.9-49.7 47.8c-5.5 5.5-10.1 10.1-20.7 10.1l7.4-104.9 190.9-172.5c8.3-7.4-1.8-11.5-12.9-4.1L117.8 284 16.2 252.2c-22.1-6.9-22.5-22.1 4.6-32.7L418.2 66.4c18.4-6.9 34.5 4.1 28.5 32.2z"/>
</g>
</symbol>

<!-- Vk -->

<symbol id="vk" viewBox="0 0 576 512">
<g>
<path d="M545 117.7c3.7-12.5 0-21.7-17.8-21.7h-58.9c-15 0-21.9 7.9-25.6 16.7 0 0-30 73.1-72.4 120.5-13.7 13.7-20 18.1-27.5 18.1-3.7 0-9.4-4.4-9.4-16.9V117.7c0-15-4.2-21.7-16.6-21.7h-92.6c-9.4 0-15 7-15 13.5 0 14.2 21.2 17.5 23.4 57.5v86.8c0 19-3.4 22.5-10.9 22.5-20 0-68.6-73.4-97.4-157.4-5.8-16.3-11.5-22.9-26.6-22.9H38.8c-16.8 0-20.2 7.9-20.2 16.7 0 15.6 20 93.1 93.1 195.5C160.4 378.1 229 416 291.4 416c37.5 0 42.1-8.4 42.1-22.9 0-66.8-3.4-73.1 15.4-73.1 8.7 0 23.7 4.4 58.7 38.1 40 40 46.6 57.9 69 57.9h58.9c16.8 0 25.3-8.4 20.4-25-11.2-34.9-86.9-106.7-90.3-111.5-8.7-11.2-6.2-16.2 0-26.2.1-.1 72-101.3 79.4-135.6z"/>
</g>
</symbol>

<!-- Viber -->

<symbol id="viber" viewBox="0 0 512 512">
<g>
<path d="M444 49.9C431.3 38.2 379.9.9 265.3.4c0 0-135.1-8.1-200.9 52.3C27.8 89.3 14.9 143 13.5 209.5c-1.4 66.5-3.1 191.1 117 224.9h.1l-.1 51.6s-.8 20.9 13 25.1c16.6 5.2 26.4-10.7 42.3-27.8 8.7-9.4 20.7-23.2 29.8-33.7 82.2 6.9 145.3-8.9 152.5-11.2 16.6-5.4 110.5-17.4 125.7-142 15.8-128.6-7.6-209.8-49.8-246.5zM457.9 287c-12.9 104-89 110.6-103 115.1-6 1.9-61.5 15.7-131.2 11.2 0 0-52 62.7-68.2 79-5.3 5.3-11.1 4.8-11-5.7 0-6.9.4-85.7.4-85.7-.1 0-.1 0 0 0-101.8-28.2-95.8-134.3-94.7-189.8 1.1-55.5 11.6-101 42.6-131.6 55.7-50.5 170.4-43 170.4-43 96.9.4 143.3 29.6 154.1 39.4 35.7 30.6 53.9 103.8 40.6 211.1zm-139-80.8c.4 8.6-12.5 9.2-12.9.6-1.1-22-11.4-32.7-32.6-33.9-8.6-.5-7.8-13.4.7-12.9 27.9 1.5 43.4 17.5 44.8 46.2zm20.3 11.3c1-42.4-25.5-75.6-75.8-79.3-8.5-.6-7.6-13.5.9-12.9 58 4.2 88.9 44.1 87.8 92.5-.1 8.6-13.1 8.2-12.9-.3zm47 13.4c.1 8.6-12.9 8.7-12.9.1-.6-81.5-54.9-125.9-120.8-126.4-8.5-.1-8.5-12.9 0-12.9 73.7.5 133 51.4 133.7 139.2zM374.9 329v.2c-10.8 19-31 40-51.8 33.3l-.2-.3c-21.1-5.9-70.8-31.5-102.2-56.5-16.2-12.8-31-27.9-42.4-42.4-10.3-12.9-20.7-28.2-30.8-46.6-21.3-38.5-26-55.7-26-55.7-6.7-20.8 14.2-41 33.3-51.8h.2c9.2-4.8 18-3.2 23.9 3.9 0 0 12.4 14.8 17.7 22.1 5 6.8 11.7 17.7 15.2 23.8 6.1 10.9 2.3 22-3.7 26.6l-12 9.6c-6.1 4.9-5.3 14-5.3 14s17.8 67.3 84.3 84.3c0 0 9.1.8 14-5.3l9.6-12c4.6-6 15.7-9.8 26.6-3.7 14.7 8.3 33.4 21.2 45.8 32.9 7 5.7 8.6 14.4 3.8 23.6z"/>
</g>
</symbol>

<!-- Chrome -->

<symbol id="chrome" viewBox="0 0 48 48">
<g>
<path fill="#4caf50" d="M44,24c0,11.044-8.956,20-20,20S4,35.044,4,24S12.956,4,24,4S44,12.956,44,24z"/>
<path fill="#ffc107" d="M24,4v20l8,4l-8.843,16c0.317,0,0.526,0,0.843,0c11.053,0,20-8.947,20-20S35.053,4,24,4z"/>
<path fill="#4caf50" d="M44,24c0,11.044-8.956,20-20,20S4,35.044,4,24S12.956,4,24,4S44,12.956,44,24z"/>
<path fill="#ffc107" d="M24,4v20l8,4l-8.843,16c0.317,0,0.526,0,0.843,0c11.053,0,20-8.947,20-20S35.053,4,24,4z"/>
<path fill="#f44336" d="M41.84,15H24v13l-3-1L7.16,13.26H7.14C10.68,7.69,16.91,4,24,4C31.8,4,38.55,8.48,41.84,15z"/>
<path fill="#dd2c00" d="M7.158,13.264l8.843,14.862L21,27L7.158,13.264z"/>
<path fill="#558b2f" d="M23.157,44l8.934-16.059L28,25L23.157,44z"/>
<path fill="#f9a825" d="M41.865,15H24l-1.579,4.58L41.865,15z"/>
<path fill="#fff" d="M33,24c0,4.969-4.031,9-9,9s-9-4.031-9-9s4.031-9,9-9S33,19.031,33,24z"/>
<path fill="#2196f3" d="M31,24c0,3.867-3.133,7-7,7s-7-3.133-7-7s3.133-7,7-7S31,20.133,31,24z"/>
</g>
</symbol>

<!-- Mozilla -->

<symbol id="mozilla" viewBox="0 0 48 48">
<g>
<path fill="#0277BD" d="M34,20.8c0-0.6,0-2.9-1.5-4.7c-0.1-0.1-0.2-0.3-0.2-0.4c-0.1-0.1-0.1-0.2-0.2-0.4L31.9,15l-0.2-0.3c-0.2-0.3-0.3-0.5-0.3-0.5c-0.4-0.6-0.5-1.4-0.1-2.1c0.1-0.2,0.3-0.4,0.4-0.6c-0.1-0.1-0.2-0.2-0.3-0.2c0,0,0,0-0.1,0c-0.3-0.2-0.6-0.4-0.8-0.6l-0.7-0.5l0,0C29.3,9.9,29,9.8,29,9.7c-0.7-0.4-1.1-1.1-1-1.9c0.1-0.8,0.6-1.5,1.4-1.7c0.1,0,0.3-0.1,0.5-0.1c0,0,0,0-0.1-0.1C28,5.3,26,5,24,5C16.6,5,10.1,9.3,7,15.5c0,0.2,0,0.3,0,0.5c0,7.2,6.3,13,14,13C26.9,29,31.9,25.6,34,20.8z"/><path fill="#FFF176" d="M30,8c0,0,0.3-0.1,0.9-0.1c0.3,0,0.6,0,1,0c0.4,0,0.8,0.1,1.3,0.2c0.5,0.1,1,0.3,1.5,0.5c0.5,0.2,1.1,0.5,1.6,0.9c0.5,0.3,1,0.8,1.5,1.2c0.5,0.4,0.9,1,1.3,1.5c0.3,0.6,0.7,1.1,1,1.7c0.3,0.6,0.5,1.2,0.7,1.8c0.2,0.6,0.3,1.2,0.4,1.7c0.1,0.6,0.1,1.1,0.1,1.5c0,0.2,0,0.5,0,0.7c0,0.2,0,0.4-0.1,0.6c0,0.4-0.1,0.7-0.1,1C41.1,21.7,41,22,41,22s-0.2-0.3-0.4-0.8c-0.1-0.2-0.3-0.5-0.4-0.9c-0.1-0.3-0.3-0.7-0.5-1.1c-0.2-0.4-0.4-0.8-0.6-1.3c-0.2-0.4-0.5-0.9-0.7-1.4c-0.2-0.5-0.5-0.9-0.8-1.4c-0.3-0.5-0.6-0.9-0.9-1.3c-0.3-0.4-0.6-0.9-1-1.2c-0.4-0.4-0.7-0.8-1.1-1.1c-0.3-0.4-0.7-0.7-1.1-1c-0.4-0.3-0.7-0.6-1.1-0.8c-0.3-0.3-0.7-0.5-1-0.7c-0.3-0.2-0.6-0.4-0.8-0.5C30.3,8.2,30,8,30,8z"/><path fill="#FDD835" d="M43.1,17.6c-0.3-2.2-1.2-4.2-2.2-5.6c-0.5-0.7-1-1.2-1.3-1.5C39.2,10.2,39,10,39,10s0,0.3,0.1,0.8c0.1,0.5,0.1,1.1,0.2,1.9c0.1,0.4,0.1,0.8,0.2,1.2c-0.4-0.6-0.9-1.2-1.4-1.6c-0.5-0.5-1.1-0.8-1.4-1C36.2,11.1,36,11,36,11s0.1,0.2,0.2,0.6c0.1,0.4,0.3,0.9,0.5,1.6c0.2,0.7,0.5,1.6,0.8,2.5c-0.6-0.7-1.2-1.3-1.8-1.7c-0.7-0.4-1.3-0.7-1.8-0.8C33.3,13,33,13,33,13s0.2,0.2,0.4,0.6c0.1,0.2,0.3,0.4,0.4,0.7c0.2,0.3,0.3,0.6,0.5,0.9c0.3,0.6,0.7,1.3,1,2.1c0.2,0.4,0.3,0.8,0.5,1.2c0.1,0.4,0.4,0.8,0.5,1.3c0.2,0.4,0.3,0.8,0.5,1.3c0.1,0.4,0.3,0.8,0.4,1.3c0.1,0.4,0.3,0.8,0.4,1.2c0.1,0.4,0.2,0.8,0.4,1.1c0.3,0.7,0.5,1.3,0.7,1.7C38.9,26.8,39,27,39,27s0.1-0.2,0.3-0.7c0.1-0.2,0.2-0.5,0.2-0.8c0.1-0.3,0.2-0.7,0.2-1.1c0-0.3,0.1-0.6,0.1-0.9C39.9,23.8,40,24,40,24s0.1-0.2,0.3-0.6c0.1-0.2,0.2-0.4,0.3-0.7c0,0,0-0.1,0-0.1c0,0.2,0,0.5,0.1,0.7c0,0.4,0.1,0.7,0.1,1c0,0.3,0,0.6,0,0.9c0,0.5,0.1,0.8,0.1,0.8s0.2-0.2,0.5-0.6c0.1-0.2,0.3-0.4,0.5-0.7c0.2-0.3,0.3-0.6,0.5-1c0.2-0.4,0.3-0.8,0.4-1.3c0.1-0.5,0.2-1,0.3-1.5c0.1-0.5,0.1-1.1,0.1-1.6C43.3,18.7,43.2,18.1,43.1,17.6z"/><path fill="#FFB300" d="M44.1,19.8C44.1,19.3,44,19,44,19s-0.2,0.3-0.5,0.7c-0.3,0.5-0.6,1.1-1,1.9c-0.3,0.7-0.7,1.5-1.1,2.3c0-0.8,0-1.5-0.1-2.2c-0.1-0.6-0.2-1.1-0.3-1.6c-0.2-0.5-0.3-1-0.5-1.4c-0.3-0.9-0.7-1.5-1-2C39.2,16.2,39,16,39,16s-0.1,1.2-0.1,3c0,0.9-0.1,1.8-0.2,2.9c0,0.5-0.1,1-0.1,1.6c0,0.5-0.1,1.1-0.2,1.6c0,0.1,0,0.3,0,0.4c-0.1-0.9-0.4-1.8-0.8-2.4c-0.3-0.7-0.7-1.2-1-1.5C36.2,21.1,36,21,36,21s0,0.3,0,0.7c0,0.4,0,1-0.1,1.7c-0.1,1.3-0.3,3-0.5,4.6c-0.1,0.4-0.2,0.8-0.2,1.2c-0.1,0.4-0.2,0.8-0.2,1.2c-0.1,0.4-0.2,0.8-0.3,1.1c-0.1,0.4-0.2,0.7-0.2,1c-0.1,0.3-0.1,0.7-0.2,0.9c-0.1,0.3-0.1,0.5-0.2,0.8C34,34.7,34,35,34,35s0.2-0.1,0.6-0.4c0.4-0.3,0.9-0.6,1.4-1.2c0.2-0.3,0.5-0.6,0.8-1c0.2-0.4,0.5-0.7,0.7-1.1c0,0.3-0.1,0.6-0.1,0.9c-0.1,0.3-0.1,0.7-0.2,0.9C37,33.7,37,34,37,34c0.1-0.1,0.4,0,0.7,0.1c0,0.1-0.1,0.2-0.1,0.2c-0.1,0.3-0.2,0.6-0.3,0.9C37.1,35.7,37,36,37,36s0.3-0.1,0.7-0.4c0.2-0.2,0.5-0.3,0.8-0.6c0.3-0.2,0.6-0.5,0.9-0.9c0.3-0.3,0.6-0.7,1-1.1c0.3-0.4,0.6-0.9,0.9-1.4c0.6-1,1.1-2.1,1.5-3.2c0.4-1.1,0.8-2.3,1-3.4c0.2-1.1,0.3-2.1,0.4-3C44.2,21.1,44.2,20.4,44.1,19.8z"/><path fill="#FF9800" d="M41.4,30.4c-0.4,0.2-0.8,0.6-1.4,1c-0.8,0.6-1.7,1.4-2.6,2.3c0.1-0.3,0.3-0.6,0.4-0.9c0.3-0.9,0.4-1.7,0.5-2.4c0-0.7,0-1.3-0.1-1.7C38.1,28.2,38,28,38,28s-0.2,0.2-0.4,0.5c-0.2,0.3-0.6,0.8-1,1.3c-0.4,0.5-0.8,1.2-1.2,1.8c-0.1,0.1-0.1,0.2-0.2,0.3c0.2-0.6,0.2-1.3,0.2-1.9c0-0.8-0.2-1.6-0.4-2.2c-0.2-0.6-0.5-1.1-0.7-1.4C34.2,26.2,34,26,34,26s-0.1,0.2-0.2,0.6c-0.1,0.3-0.3,0.8-0.5,1.4c-0.2,0.5-0.3,1.1-0.5,1.8c-0.1,0.3-0.2,0.6-0.3,1c-0.1,0.3-0.2,0.6-0.3,0.8c-1.9,1.9-4.2,2.4-6.4,2.5c-1.2,0-2.3-0.2-3.3-0.5c0,0,0,0,0,0c0,0,0,0,0,0c-1.5-0.5-2.9-1.4-4.2-2.6c1.9,0.2,3.7-0.2,5.2-0.9l2.5-1.6l0,0c0.3-0.1,0.6-0.1,0.9,0c0.6-0.1,0.8-0.4,0.6-1c-0.3-0.4-0.8-0.8-1.3-1.1c-1.3-0.7-2.6-0.6-4,0.3c-1.3,0.7-2.5,0.6-3.8-0.1c-3.1-1.6-1.9-5.7,1.4-3.6c0.2-1-0.1-2.1-0.7-3.2c0,0,0,0,0,0c-2.9-5.3,0.4-9.6,1.5-10.3c-2,0.2-3.8,1.1-5.4,2.6C4.9,10.9,4,20.9,4,21l1.2-1.1c-0.4,1.1-0.7,2.2-0.8,3.4C4,27.2,5.1,31,7.7,34.8C11.7,39.9,18,43,24,43c6.8,0,11.2-2.5,14.1-5.7c0.2-0.2,0.4-0.4,0.6-0.6c0.6-0.7,1.2-1.4,1.7-2.2c0.5-0.7,0.8-1.5,1.1-2.2c0.2-0.7,0.4-1.3,0.5-1.7C42,30.3,42,30,42,30S41.8,30.1,41.4,30.4z"/><path fill="#EF6C00" d="M12,28c-0.2-7,4.3-6.4,6.6-5.6C17,22.1,16.3,23.6,17,25C16.7,25,13.6,24.7,12,28z M18.3,30.9c1.9,0.2,3.7-0.2,5.2-0.9l2.5-1.6l0,0c0.2-0.1,0.5-0.1,0.7,0l0,0c-2.9-1.7-6,1.9-12.8,0.8C15.6,30.5,18.3,30.9,18.3,30.9z M18.1,14.5c-0.2,1.5,0.1,3.3,1.1,5.2c0,0,0,0,0,0c0,0,0,0,0,0C20.6,18.9,22,18,22,18s2-2,0-2C20.1,16,18.8,15.2,18.1,14.5z M10.3,12.4C9.4,11.6,8,10,8,8c0,0-2.4,3.9-1.5,7C7.4,13.9,8.7,13,10.3,12.4z"/><path fill="#FFCC80" d="M19.2,19.7C19.2,19.7,19.2,19.7,19.2,19.7C19.2,19.7,19.2,19.7,19.2,19.7C20.6,18.9,22,18,22,18s0.2-0.2,0.4-0.4L22,17h-3.8C18.4,17.9,18.7,18.8,19.2,19.7z"/><path fill="#5D4037" d="M22,16c-0.3,0-0.6,0-0.9-0.1L21,16c0,0,0.8,1.3,1,2C22,18,24,16,22,16z"/>
</g>
</symbol>

<!-- Safari -->

<symbol id="safari" viewBox="0 0 48 48">
<g>
<path fill="#cfd8dc" d="M44,24c0,11.044-8.956,20-20,20S4,35.044,4,24S12.956,4,24,4S44,12.956,44,24z"/><path fill="#448aff" d="M41,24c0,9.391-7.609,17-17,17S7,33.391,7,24S14.609,7,24,7S41,14.609,41,24z"/><path fill="#ff3d00" d="M21.898,21.898l4.203,4.203l9.199-13.402L21.898,21.898z"/><path fill="#bf360c" d="M24,24l11.301-11.301l-9.199,13.402L24,24z"/><path fill="#fff" d="M21.898,21.898l-9.199,13.402l13.402-9.199L21.898,21.898z"/><path fill="#bdbdbd" d="M24,24L12.699,35.301l13.402-9.199L24,24z"/><path fill="#bbdefb" d="M17.102,10.699c0.598-0.301,1.199-0.598,1.797-0.801l1.203,2.703l-1.801,0.797L17.102,10.699z M36,25h2.898c0-0.301,0.102-0.699,0.102-1s0-0.699-0.102-1H36V25z M12.699,14.102l2.102,2.098l1.398-1.398l-2.098-2.102C13.602,13.199,13.199,13.602,12.699,14.102z M25,9.102C24.699,9,24.301,9,24,9s-0.699,0-1,0.102V12h2V9.102z M30.398,10.5c-0.598-0.301-1.199-0.5-1.898-0.699l-1.102,2.801l1.902,0.699L30.398,10.5z M12.5,20.5l0.699-1.898L10.5,17.5c-0.301,0.602-0.5,1.199-0.699,1.898L12.5,20.5z M12,23H9.102C9,23.301,9,23.699,9,24s0,0.699,0.102,1H12V23z M35.5,27.5l-0.699,1.898L37.5,30.5c0.301-0.602,0.5-1.199,0.699-1.898L35.5,27.5z M38.102,18.898c-0.203-0.598-0.5-1.199-0.801-1.797l-2.699,1.199l0.797,1.801L38.102,18.898z M35.301,33.898l-2.102-2.098l-1.398,1.398l2.098,2.102C34.398,34.801,34.801,34.398,35.301,33.898z M13.398,29.699l-0.797-1.801l-2.703,1.203c0.203,0.598,0.5,1.199,0.801,1.797L13.398,29.699z M29.699,34.602l-1.801,0.797l1.203,2.703c0.598-0.203,1.199-0.5,1.797-0.801L29.699,34.602z M20.5,35.5l-1.898-0.699L17.5,37.5c0.602,0.301,1.199,0.5,1.898,0.699L20.5,35.5z M25,38.898V36h-2v2.898c0.301,0,0.699,0.102,1,0.102S24.699,39,25,38.898z"/>
</g>
</symbol>

<!-- Opera -->

<symbol id="opera" viewBox="0 0 48 48">
<g>
<path fill="#ff1744" d="M24,4C12.947,4,4,12.947,4,24s8.947,20,20,20s20-8.947,20-20S35.053,4,24,4z M24,39c-5.263,0-10-6.896-10-15S18.737,9,24,9s10,6.896,10,15S29.263,39,24,39z"/><path fill="#d50000" d="M36.564,8.445C34.413,6.972,31.89,6,29.263,6c-3.948,0-7.524,1.98-10.166,5.079C20.573,9.77,22.255,9,24,9c5.263,0,10,6.896,10,15s-4.737,15-10,15c-1.745,0-3.427-0.77-4.903-2.079C21.739,40.02,25.315,42,29.263,42c2.626,0,5.15-0.972,7.3-2.444C41.097,35.891,44,30.29,44,24C44,17.711,41.097,12.11,36.564,8.445z"/>
</g>
</symbol>

<!-- Edge -->

<symbol id="edge" viewBox="0 0 48 48">
<g>
<path fill="#1de9b6" d="M4,23.481C4,15.673,10.557,4,24.014,4C37.452,4,44,13.923,44,20.905c0,5.604-4.429,9.732-9.992,9.732	c-4.245,0-6.759-1.408-6.759-2.53c0-0.726,1.755-1.837,1.755-3.982c0-2.565-1.986-5.137-5.045-5.137	c-2.934,0-4.974,2.442-4.974,4.905c0,5.952,5.63,11.644,13.931,11.644c4.959,0,6.759-1.828,7.403-1.828	c0.196,0,0.647,0.08,0.647,0.603c0,0.5-5.486,9.686-16.94,9.686C12.632,44,4,35.023,4,23.481z"/><radialGradient id="2pm2zgLwrfHW4PMfqfOjYa" cx="17.993" cy="32.825" r="21.348" gradientTransform="matrix(1 0 0 1.1083 0 -3.529)" gradientUnits="userSpaceOnUse"><stop offset=".652" stop-color="#0083de"/><stop offset=".822" stop-color="#006aac"/><stop offset=".944" stop-color="#005a8c"/></radialGradient><path fill="url(#2pm2zgLwrfHW4PMfqfOjYa)" d="M4,23.481c0-7.808,7.615-12.04,12.73-12.04c13.439,0,17.277,2.483,17.277,9.465	c0,5.604-5.003,5.366-5.003,3.221c0-2.565-1.986-5.137-5.045-5.137c-2.934,0-4.974,2.442-4.974,4.905	c0,5.952,5.63,11.644,13.931,11.644c4.959,0,6.759-1.828,7.403-1.828c0.196,0,0.647,0.08,0.647,0.603c0,0.5-5.486,9.686-16.94,9.686	C12.632,44,4,35.023,4,23.481z"/><radialGradient id="2pm2zgLwrfHW4PMfqfOjYb" cx="28.082" cy="29.295" r="16.478" gradientTransform="matrix(1 0 0 1.0028 0 -.067)" gradientUnits="userSpaceOnUse"><stop offset=".69" stop-color="#05509b"/><stop offset=".717" stop-color="#054e98"/><stop offset="1" stop-color="#033e78"/></radialGradient><path fill="url(#2pm2zgLwrfHW4PMfqfOjYb)" d="M18.985,23.894c0-2.298,1.775-4.575,4.395-4.871c-4.104,0.349-8.798,4.375-8.798,11.831	c0,7.963,6.864,13.465,13.943,12.628c8.386-1.927,12.441-8.74,12.441-9.168c0-0.523-0.451-0.603-0.647-0.603	c-0.643,0-2.444,1.828-7.403,1.828C24.615,35.539,18.985,29.847,18.985,23.894z"/><radialGradient id="2pm2zgLwrfHW4PMfqfOjYc" cx="47.648" cy="16.079" r="61.532" gradientTransform="matrix(-1 0 0 -1.5084 95.296 40.31)" gradientUnits="userSpaceOnUse"><stop offset="0" stop-color="#5eeb69"/><stop offset=".214" stop-color="#4bc958"/><stop offset=".225" stop-color="#4ac862"/><stop offset=".272" stop-color="#47c68b"/><stop offset=".323" stop-color="#44c4ae"/><stop offset=".376" stop-color="#41c2cb"/><stop offset=".433" stop-color="#3fc1e1"/><stop offset=".495" stop-color="#3ec0f1"/><stop offset=".565" stop-color="#3dbffa"/><stop offset=".664" stop-color="#3dbffd"/></radialGradient><path fill="url(#2pm2zgLwrfHW4PMfqfOjYc)" d="M4,23.481C4,15.673,10.557,4,24.014,4C37.452,4,44,13.923,44,20.905	c0,5.604-4.429,9.732-9.992,9.732c-4.245,0-6.759-1.408-6.759-2.53c0-0.726,1.755-1.837,1.755-3.982	c0-2.565-2.076-10.678-12.628-10.678C13.442,13.448,5.256,14.745,4,23.481z"/>
</g>
</symbol>

<!-- Ie 11 -->

<symbol id="ie11" viewBox="0 0 48 48">
<g>
<path fill="#29B6F6" d="M29.4,8.4c1.1-0.7,5.3-3.3,8.8-3.3c6.6,0,3.5,7.7,3.5,7.7l0.2,0.2C45.7,3.3,38.4,4,38.4,4c-4.1,0-9.3,3.4-10.4,4.2c-1-0.1-2-0.2-3.1-0.2C9.7,8,7.4,19.6,7.1,23C7,23.5,7,23.8,7,23.8c0,0,0,0,0,0C7,23.9,7,24,7,24c0-0.1,0-0.2,0-0.3c6.1-8.7,14.5-12.2,14.5-12.2v0.6C9,20.6,6,33.2,5.3,35.7C4.5,38.3,5,44,10.3,44s10.4-4.2,10.4-4.2S21.9,40,25,40c13.2,0,16.7-12,16.7-12H30c0,0-1.2,4-5.4,4c-5.8,0-5.6-6-5.6-6h23c0.4-5.5-1.1-9.3-3.3-11.9C36.9,11.5,34,9.3,29.4,8.4z M20,39.6c0,0-7.8,4.9-11.4,1.5c-1.9-3.4,1.2-8.2,1.2-8.2S12.2,37.8,20,39.6z M18.8,10.3C18.8,10.3,18.7,10.3,18.8,10.3L18.8,10.3L18.8,10.3z M19,21c0,0-0.1-5,5.5-5c5.4,0,5.5,5,5.5,5H19z"/>
</g>
</symbol>

</svg>