<svg xmlns="http://www.w3.org/2000/svg" viewBox="0 0 48 48" width="100" height="100"><path fill="#01579B" d="M24 5a19 19 0 100 38 19 19 0 100-38z"/><path fill="#0277BD" d="M34 20.8c0-.6 0-2.9-1.5-4.7-.1-.1-.2-.3-.2-.4-.1-.1-.1-.2-.2-.4l-.2-.3-.2-.3c-.2-.3-.3-.5-.3-.5-.4-.6-.5-1.4-.1-2.1.1-.2.3-.4.4-.6-.1-.1-.2-.2-.3-.2h-.1c-.3-.2-.6-.4-.8-.6l-.7-.5c-.5-.3-.8-.4-.8-.5-.7-.4-1.1-1.1-1-1.9.1-.8.6-1.5 1.4-1.7.1 0 .3-.1.5-.1l-.1-.1C28 5.3 26 5 24 5 16.6 5 10.1 9.3 7 15.5v.5c0 7.2 6.3 13 14 13 5.9 0 10.9-3.4 13-8.2z"/><path fill="#FFF176" d="M30 8s.3-.1.9-.1h1c.4 0 .8.1 1.3.2s1 .3 1.5.5 1.1.5 1.6.9c.5.3 1 .8 1.5 1.2.5.4.9 1 1.3 1.5.3.6.7 1.1 1 1.7.3.6.5 1.2.7 1.8.2.6.3 1.2.4 1.7.1.6.1 1.1.1 1.5v.7c0 .2 0 .4-.1.6 0 .4-.1.7-.1 1 0 .5-.1.8-.1.8s-.2-.3-.4-.8c-.1-.2-.3-.5-.4-.9-.1-.3-.3-.7-.5-1.1-.2-.4-.4-.8-.6-1.3-.2-.4-.5-.9-.7-1.4-.2-.5-.5-.9-.8-1.4-.3-.5-.6-.9-.9-1.3-.3-.4-.6-.9-1-1.2-.4-.4-.7-.8-1.1-1.1-.3-.4-.7-.7-1.1-1-.4-.3-.7-.6-1.1-.8-.3-.3-.7-.5-1-.7-.3-.2-.6-.4-.8-.5-.3-.3-.6-.5-.6-.5z"/><path fill="#FDD835" d="M43.1 17.6c-.3-2.2-1.2-4.2-2.2-5.6-.5-.7-1-1.2-1.3-1.5-.4-.3-.6-.5-.6-.5s0 .3.1.8.1 1.1.2 1.9c.1.4.1.8.2 1.2-.4-.6-.9-1.2-1.4-1.6-.5-.5-1.1-.8-1.4-1-.5-.2-.7-.3-.7-.3s.1.2.2.6c.1.4.3.9.5 1.6.2.7.5 1.6.8 2.5-.6-.7-1.2-1.3-1.8-1.7-.7-.4-1.3-.7-1.8-.8-.6-.2-.9-.2-.9-.2s.2.2.4.6c.1.2.3.4.4.7.2.3.3.6.5.9.3.6.7 1.3 1 2.1.2.4.3.8.5 1.2.1.4.4.8.5 1.3.2.4.3.8.5 1.3.1.4.3.8.4 1.3.1.4.3.8.4 1.2.1.4.2.8.4 1.1.3.7.5 1.3.7 1.7l.3.6s.1-.2.3-.7c.1-.2.2-.5.2-.8.1-.3.2-.7.2-1.1 0-.3.1-.6.1-.9.1.3.2.5.2.5l.3-.6c.1-.2.2-.4.3-.7v-.1c0 .2 0 .5.1.7 0 .4.1.7.1 1v.9c0 .5.1.8.1.8s.2-.2.5-.6c.1-.2.3-.4.5-.7.2-.3.3-.6.5-1s.3-.8.4-1.3l.3-1.5c.1-.5.1-1.1.1-1.6.1-.6 0-1.2-.1-1.7z"/><path fill="#FFB300" d="M44.1 19.8c0-.5-.1-.8-.1-.8s-.2.3-.5.7c-.3.5-.6 1.1-1 1.9-.3.7-.7 1.5-1.1 2.3 0-.8 0-1.5-.1-2.2-.1-.6-.2-1.1-.3-1.6-.2-.5-.3-1-.5-1.4-.3-.9-.7-1.5-1-2-.3-.5-.5-.7-.5-.7s-.1 1.2-.1 3c0 .9-.1 1.8-.2 2.9 0 .5-.1 1-.1 1.6 0 .5-.1 1.1-.2 1.6v.4c-.1-.9-.4-1.8-.8-2.4-.3-.7-.7-1.2-1-1.5-.4-.5-.6-.6-.6-.6v.7c0 .4 0 1-.1 1.7-.1 1.3-.3 3-.5 4.6-.1.4-.2.8-.2 1.2-.1.4-.2.8-.2 1.2-.1.4-.2.8-.3 1.1-.1.4-.2.7-.2 1-.1.3-.1.7-.2.9-.1.3-.1.5-.2.8-.1.5-.1.8-.1.8s.2-.1.6-.4c.4-.3.9-.6 1.4-1.2.2-.3.5-.6.8-1 .2-.4.5-.7.7-1.1 0 .3-.1.6-.1.9-.1.3-.1.7-.2.9-.2.6-.2.9-.2.9.1-.1.4 0 .7.1 0 .1-.1.2-.1.2l-.3.9c-.2.5-.3.8-.3.8s.3-.1.7-.4c.2-.2.5-.3.8-.6.3-.2.6-.5.9-.9.3-.3.6-.7 1-1.1.3-.4.6-.9.9-1.4.6-1 1.1-2.1 1.5-3.2.4-1.1.8-2.3 1-3.4.2-1.1.3-2.1.4-3 0-.9 0-1.6-.1-2.2z"/><path fill="#FF9800" d="M41.4 30.4c-.4.2-.8.6-1.4 1-.8.6-1.7 1.4-2.6 2.3.1-.3.3-.6.4-.9.3-.9.4-1.7.5-2.4 0-.7 0-1.3-.1-1.7-.1-.5-.2-.7-.2-.7s-.2.2-.4.5-.6.8-1 1.3-.8 1.2-1.2 1.8c-.1.1-.1.2-.2.3.2-.6.2-1.3.2-1.9 0-.8-.2-1.6-.4-2.2-.2-.6-.5-1.1-.7-1.4-.1-.2-.3-.4-.3-.4s-.1.2-.2.6c-.1.3-.3.8-.5 1.4-.2.5-.3 1.1-.5 1.8-.1.3-.2.6-.3 1-.1.3-.2.6-.3.8-1.9 1.9-4.2 2.4-6.4 2.5-1.2 0-2.3-.2-3.3-.5-1.5-.5-2.9-1.4-4.2-2.6 1.9.2 3.7-.2 5.2-.9l2.5-1.6c.3-.1.6-.1.9 0 .6-.1.8-.4.6-1-.3-.4-.8-.8-1.3-1.1-1.3-.7-2.6-.6-4 .3-1.3.7-2.5.6-3.8-.1-3.1-1.6-1.9-5.7 1.4-3.6.2-1-.1-2.1-.7-3.2-2.9-5.3.4-9.6 1.5-10.3-2 .2-3.8 1.1-5.4 2.6C4.9 10.9 4 20.9 4 21l1.2-1.1c-.4 1.1-.7 2.2-.8 3.4-.4 3.9.7 7.7 3.3 11.5C11.7 39.9 18 43 24 43c6.8 0 11.2-2.5 14.1-5.7l.6-.6c.6-.7 1.2-1.4 1.7-2.2.5-.7.8-1.5 1.1-2.2.2-.7.4-1.3.5-1.7V30s-.2.1-.6.4z"/><path fill="#EF6C00" d="M12 28c-.2-7 4.3-6.4 6.6-5.6-1.6-.3-2.3 1.2-1.6 2.6-.3 0-3.4-.3-5 3zm6.3 2.9c1.9.2 3.7-.2 5.2-.9l2.5-1.6c.2-.1.5-.1.7 0-2.9-1.7-6 1.9-12.8.8 1.7 1.3 4.4 1.7 4.4 1.7zm-.2-16.4c-.2 1.5.1 3.3 1.1 5.2C20.6 18.9 22 18 22 18s2-2 0-2c-1.9 0-3.2-.8-3.9-1.5zm-7.8-2.1C9.4 11.6 8 10 8 8c0 0-2.4 3.9-1.5 7 .9-1.1 2.2-2 3.8-2.6z"/><path fill="#FFCC80" d="M19.2 19.7C20.6 18.9 22 18 22 18l.4-.4-.4-.6h-3.8c.2.9.5 1.8 1 2.7z"/><path fill="#5D4037" d="M22 16c-.3 0-.6 0-.9-.1l-.1.1s.8 1.3 1 2c0 0 2-2 0-2z"/></svg>