<svg xmlns="http://www.w3.org/2000/svg" width="262" height="78.914"><g id="Group_3" data-name="Group 3" transform="translate(-13 -7)"><text id="the_cipa" data-name="the cipa" transform="translate(99 67)" font-size="50" font-family="ArialMT, Arial"><tspan x="0" y="0">the cipa</tspan></text><g id="Rectangle_1" data-name="Rectangle 1" fill="#fff" stroke="#000" stroke-linecap="round" stroke-linejoin="round" stroke-width="2"><path stroke="none" d="M0 0h80v70H0z" transform="translate(13 7)"/><path fill="none" d="M14 8h78v68H14z"/></g><g id="Group_2" data-name="Group 2" fill="none" stroke="#000" stroke-linecap="round" stroke-width="2"><path id="Line_1" data-name="Line 1" transform="translate(40.5 76.5)" d="M8 0L0 8"/><path id="Line_3" data-name="Line 3" transform="translate(58.5 76.5)" d="M0 0l8 8"/><path id="Line_4" data-name="Line 4" transform="translate(31.5 84.5)" d="M0 0h44"/></g><g id="Ellipse_1" data-name="Ellipse 1" transform="translate(50 67)" fill="#87d6b4" stroke="#87d6b4" stroke-width="1"><circle cx="3.5" cy="3.5" r="3.5" stroke="none"/><circle cx="3.5" cy="3.5" r="3" fill="none"/></g><g id="Rectangle_3" data-name="Rectangle 3" fill="#6b5947" stroke="#6b5947" stroke-width="1"><path stroke="none" d="M0 0h3v3H0z" transform="translate(62 69)"/><path fill="none" d="M62.5 69.5h2v2h-2z"/></g><g id="Rectangle_4" data-name="Rectangle 4" fill="#6b5947" stroke="#6b5947" stroke-width="1"><path stroke="none" d="M0 0h3v3H0z" transform="translate(42 69)"/><path fill="none" d="M42.5 69.5h2v2h-2z"/></g><g id="Rectangle_2" data-name="Rectangle 2" fill="#bb9c9c" stroke="#000" stroke-linecap="round" stroke-linejoin="round" stroke-width="2"><path stroke="none" d="M0 0h60v50H0z" transform="translate(23 16)"/><path fill="none" d="M24 17h58v48H24z"/></g><g id="Group_1" data-name="Group 1" transform="translate(23 20)" fill="none" stroke="#fff" stroke-linecap="round" stroke-width="2"><path id="Line_5" data-name="Line 5" transform="translate(11.5 16.5)" d="M8 0L0 7"/><path id="Line_6" data-name="Line 6" transform="translate(11.5 23.5)" d="M0 0l8 8"/><path id="Line_7" data-name="Line 7" transform="rotate(180 24.25 15.75)" d="M8 0L0 7"/><path id="Line_8" data-name="Line 8" transform="rotate(180 24.25 12.25)" d="M0 0l8 8"/><path id="Line_9" data-name="Line 9" transform="translate(28.5 15.5)" d="M3 0L0 16"/></g><path id="Path_1" data-name="Path 1" d="M29.831 25.4h2.985l1.767-2.852 1.439 2.852h2.959l-2.609 2.294 1.048 3.251-2.836-2.114-2.675 2.112.555-3.251-2.633-2.292" fill="#fff" stroke="#fff" stroke-linecap="round" stroke-linejoin="round" stroke-width="1"/></g></svg>